<!DOCTYPE svg PUBLIC "-//W3C//DTD SVG 20010904//EN" "http://www.w3.org/TR/2001/REC-SVG-20010904/DTD/svg10.dtd">
<svg version="1.0" xmlns="http://www.w3.org/2000/svg" width="656px" height="627px" viewBox="0 0 6560 6270" preserveAspectRatio="xMidYMid meet">
<g id="layer101" fill="#1a5493" stroke="none">
<path d="M1420 5933 c-144 -14 -372 -62 -393 -82 -4 -4 477 -360 1070 -791 l1078 -782 3 88 c8 233 -89 556 -238 799 -189 309 -503 561 -851 683 -199 70 -471 105 -669 85z"/>
<path d="M1529 3680 c-574 -52 -1084 -405 -1328 -920 -84 -178 -129 -337 -151 -535 -12 -105 -13 -225 -3 -225 7 0 527 390 1693 1269 l444 335 -44 14 c-91 27 -229 52 -341 62 -125 11 -144 11 -270 0z"/>
<path d="M2587 2538 c-19 -24 -61 -83 -92 -133 -511 -814 -215 -1893 637 -2321 96 -48 188 -87 188 -79 0 16 -684 2561 -690 2568 -4 5 -23 -11 -43 -35z"/>
</g>
<g id="layer102" fill="#00ab9f" stroke="none">
<path d="M4932 6078 c-22 -68 -208 -638 -412 -1266 -204 -629 -369 -1146 -367 -1148 7 -8 171 58 267 106 652 328 1005 1076 849 1797 -41 188 -117 372 -221 535 -75 117 -70 118 -116 -24z"/>
<path d="M3902 2424 c18 -26 73 -89 122 -141 486 -514 1238 -655 1885 -352 203 96 412 257 551 428 41 50 77 96 78 101 2 7 -473 10 -1333 10 l-1336 0 33 -46z"/>
</g>


</svg>